<svg width="98" height="89" viewBox="0 0 98 89" fill="none" xmlns="http://www.w3.org/2000/svg">
<g clip-path="url(#clip0)">
<path d="M15.5 40.5L4.2 29.4L15.5 22.8V40.5ZM58.8 9.2H79.7V42.6L65.7 56.3H31.4L18.6 43.6V9.2H58.8ZM48.6 3.4L52.9 6H44.2L48.6 3.4ZM93 29.4L82.8 39.4V23.5L93 29.4ZM68.6 57.8L94 32.8V82.7L68.6 57.8ZM31.4 59.4H65.7L91.7 85H5.4L31.4 59.4ZM3.2 32.9L28.6 57.9L3.2 82.9V32.9V32.9ZM96.9 87.5C97 87.4 97 87.4 97 87.4C97 87.4 97 87.4 97 87.3C97 87.3 97 87.3 97 87.2C97 87.1 97 87.2 97 87.1C97 87.1 97 87.1 97 87V86.9V86.8V86.7V86.6V86.5C97 86.5 97 86.5 97 86.4V29.1V29C97 29 97 29 97 28.9C97 28.9 97 28.9 97 28.8C97 28.8 97 28.8 97 28.7V28.6C97 28.6 97 28.6 97 28.5C97 28.5 97 28.5 97 28.4C97 28.4 97 28.4 97 28.3V28.2V28.1C97 28.1 97 28.1 96.9 28C96.9 28 96.9 28 96.8 27.9H96.7H96.6L83 20V7.6C83 7.4 83 7.2 82.9 7C82.8 6.8 82.7 6.6 82.6 6.5C82.5 6.4 82.3 6.2 82.1 6.2C81.7 6 81.5 6 81.3 6H59.3L49.4 0.2C49.1 0.1 48.9 0 48.6 0C48.3 0 48 0.1 47.8 0.2L37.9 6H17C16.8 6 16.6 6 16.4 6.1C16.2 6.2 16 6.3 15.9 6.4C15.8 6.5 15.6 6.7 15.6 6.9C15.5 7.1 15.5 7.3 15.5 7.5V19L0.8 27.7H0.7C0.7 27.7 0.7 27.7 0.6 27.8L0.4 28V28.1V28.2C0.4 28.2 0.4 28.2 0.4 28.3C0.4 28.3 0.4 28.3 0.4 28.4C0.4 28.4 0.4 28.4 0.4 28.5C0.4 28.5 0.4 28.5 0.4 28.6C0.4 28.7 0.4 28.6 0.4 28.7C0 29 0 29 0 29V86.5V86.6C0 86.6 0 86.6 0 86.7V86.8V86.9V87C0 87 0 87 0 87.1V87.2V87.3V87.4C0 87.4 0 87.4 0 87.5C0 87.5 0 87.5 0 87.6V87.7V87.8C0 87.8 0 87.8 0.1 87.9L0.2 88L0.3 88.1H0.4C0.4 88.1 0.4 88.1 0.5 88.1H0.6H0.7H0.8H0.9H1H1.1H1.2H1.3C1.4 88.1 1.4 88.1 1.4 88.1H95.4C95.5 88.1 95.5 88.1 95.5 88.1H95.6H95.7H95.8H95.9H96H96.1H96.2H96.3H96.4H96.5L96.6 88L96.7 87.9C96.8 87.7 96.8 87.6 96.9 87.5C96.8 87.6 96.8 87.6 96.9 87.5Z" fill="black"/>
<path d="M30.8 38.2H66.8C67 38.2 67.2 38.2 67.4 38.1C67.6 38 67.8 37.9 67.9 37.8C68.1 37.6 68.2 37.5 68.3 37.3C68.4 37.1 68.4 36.9 68.4 36.7C68.4 36.5 68.4 36.3 68.3 36.1C68.2 35.9 68.1 35.7 67.9 35.6C67.7 35.4 67.6 35.3 67.4 35.3C67.2 35 67 35 66.8 35H30.8C30.6 35 30.4 35 30.2 35.1C30 35.2 29.8 35.3 29.7 35.4C29.6 35.5 29.4 35.7 29.3 35.9C29.2 36.1 29.2 36.3 29.2 36.5C29.2 36.7 29.2 36.9 29.3 37.1C29.4 37.3 29.5 37.5 29.7 37.6C29.9 37.7 30 37.9 30.2 37.9C30.4 38.1 30.6 38.2 30.8 38.2Z" fill="black"/>
<path d="M30.8 45.8H66.8C67 45.8 67.2 45.8 67.4 45.7C67.6 45.6 67.8 45.5 67.9 45.4C68 45.3 68.2 45.1 68.2 44.9C68.3 44.7 68.3 44.5 68.3 44.3C68.3 44.1 68.3 43.9 68.2 43.7C68.1 43.5 68 43.3 67.9 43.2C67.8 43.1 67.6 42.9 67.4 42.9C67.2 42.8 67 42.8 66.8 42.8H30.8C30.6 42.8 30.4 42.8 30.2 42.9C30 43 29.8 43.1 29.7 43.2C29.6 43.3 29.4 43.5 29.4 43.7C29.3 43.9 29.3 44.1 29.3 44.3C29.3 44.5 29.3 44.7 29.4 44.9C29.5 45.1 29.6 45.3 29.7 45.4C29.8 45.5 30 45.7 30.2 45.7C30.4 45.8 30.6 45.8 30.8 45.8Z" fill="black"/>
<path d="M39.1 23.6H40L39.8 24.6H38.9L39.1 23.6ZM37.3 27.1H38.4L38.7 25.7H39.6L39.3 27.1H40.4L40.7 25.7H41.9V24.6H40.9L41.1 23.6H41.9V22.5H41.4L41.7 21.1H40.6L40.3 22.5H39.4L39.7 21.1H38.6L38.3 22.5H37.1V23.6H38.1L37.9 24.6H37.1V25.7H37.6L37.3 27.1Z" fill="black"/>
<path d="M44.1 25.8V24.6H45C45.3 24.6 45.5 24.7 45.7 24.7C45.8 24.8 45.9 24.9 45.9 25.1C45.9 25.3 45.8 25.4 45.7 25.5C45.6 25.6 45.4 25.7 45 25.7L44.1 25.8ZM44.1 22.4H44.9C45.1 22.4 45.3 22.4 45.5 22.5C45.6 22.6 45.7 22.7 45.7 22.9C45.7 23.1 45.7 23.2 45.5 23.3C45.4 23.4 45.2 23.4 44.9 23.4H44.1V22.4ZM46.2 26.9C46.4 26.9 46.7 26.8 46.9 26.7C47.1 26.6 47.3 26.4 47.5 26.1C47.6 25.8 47.7 25.6 47.7 25.3C47.7 25 47.6 24.7 47.4 24.4C47.2 24.1 46.8 24 46.5 23.9C46.7 23.8 46.9 23.7 47.1 23.5C47.3 23.2 47.4 23 47.4 22.6C47.4 22.2 47.3 21.8 47 21.6C46.7 21.3 46.3 21.2 45.7 21.2H42.4V27H45.5C45.7 27 45.9 27 46.2 26.9Z" fill="black"/>
<path d="M52.8 25.6H50V21.2H48.2V27H52.8V25.6Z" fill="black"/>
<path d="M54.6 22.6L55.7 27H57.1L58.2 22.6V27H59.7V21.2H57.3L56.4 24.7L55.5 21.2H53.2V27H54.6V22.6Z" fill="black"/>
</g>
<defs>
<clipPath id="clip0">
<rect width="97.2" height="88.2" fill="white"/>
</clipPath>
</defs>
</svg>
